<svg width="24" height="24" viewBox="0 0 24 24" fill="none" xmlns="http://www.w3.org/2000/svg">
<g id="cib-ionic" clip-path="url(#clip0_1586_6543)">
<path id="Vector" d="M22.9222 7.02677L22.8202 6.79652L22.6485 6.98327C22.2428 7.44827 21.7238 7.80452 21.1455 8.01902L20.9842 8.08127L21.051 8.23727C21.5468 9.42902 21.8048 10.7063 21.801 11.9955C21.801 17.4015 17.406 21.8003 11.9963 21.8003C6.5865 21.8003 2.19525 17.4053 2.19525 11.9993C2.19525 6.59327 6.5985 2.19452 12 2.19452C13.4692 2.19452 14.883 2.51177 16.1993 3.14027L16.3552 3.21452L16.422 3.06152C16.6642 2.49152 17.043 1.99577 17.5267 1.60877L17.7225 1.44902L17.4998 1.33202C15.801 0.453023 13.914 -0.00372709 12 2.29057e-05C5.38275 2.29057e-05 0 5.38277 0 12C0 18.621 5.38275 24 12 24C18.621 24 24 18.621 24 12C24 10.2698 23.6407 8.59802 22.9222 7.02677ZM12 6.53102C8.97975 6.53477 6.53475 8.97977 6.531 12C6.53475 15.0203 8.97975 17.4653 12 17.469C15.0203 17.4653 17.4653 15.0203 17.469 12C17.4653 8.97977 15.0203 6.53477 12 6.53102ZM22.344 4.52327C22.344 5.90252 21.2272 7.01627 19.8517 7.01627C18.4725 7.01627 17.355 5.90252 17.355 4.52327C17.355 1.19927 22.344 1.19927 22.344 4.52327Z" fill="white"/>
</g>
<defs>
<clipPath id="clip0_1586_6543">
<rect width="24" height="24" fill="white"/>
</clipPath>
</defs>
</svg>
