<svg width="40" height="40" viewBox="0 0 40 40" fill="none" xmlns="http://www.w3.org/2000/svg">
<circle opacity="0.3" cx="20" cy="20" r="20" fill="#F43F5E"/>
<circle cx="20" cy="20" r="17" fill="#F43F5E"/>
<path d="M22.475 19.4247C22.6143 19.2854 22.7247 19.12 22.8001 18.938C22.8755 18.756 22.9143 18.561 22.9143 18.364C22.9143 18.167 22.8755 17.972 22.8001 17.79C22.7247 17.608 22.6143 17.4426 22.475 17.3033C22.3357 17.164 22.1703 17.0536 21.9883 16.9782C21.8063 16.9028 21.6113 16.864 21.4143 16.864C21.2173 16.864 21.0223 16.9028 20.8403 16.9782C20.6583 17.0536 20.4929 17.164 20.3536 17.3033L21.4143 18.364L22.475 19.4247Z" fill="white"/>
<path d="M16.0589 23.9411C15.4061 23.2883 14.8883 22.5134 14.5351 21.6606C14.1818 20.8077 14 19.8936 14 18.9705C14 18.0474 14.1818 17.1333 14.5351 16.2805C14.8883 15.4276 15.4061 14.6527 16.0589 14L26 23.9411C25.3473 24.5938 24.5723 25.1116 23.7195 25.4649C22.8666 25.8181 21.9526 25.9999 21.0294 25.9999C20.1063 25.9999 19.1922 25.8181 18.3394 25.4649C17.4865 25.1116 16.7116 24.5938 16.0589 23.9411ZM16.0589 23.9411L13 29H18M25.6025 17.0463C25.1056 15.8757 24.1813 14.9384 23.0177 14.4252M28.6901 16.7949C28.3187 15.4995 27.6261 14.319 26.6766 13.3629C25.7271 12.4067 24.5514 11.7059 23.2587 11.3254" stroke="white" stroke-width="2" stroke-linecap="round" stroke-linejoin="round"/>
</svg>
