<svg width="43" height="45" viewBox="0 0 43 45" fill="none" xmlns="http://www.w3.org/2000/svg">
<g id="Payment Icons">
<g clip-path="url(#clip0_646_4163)">
<rect id="Rectangle 117" y="0.788208" width="43" height="43" fill="#3A3A3A"/>
<path id="WeChat" d="M18.3645 25.9978C18.2607 26.0553 18.1439 26.0886 18.0196 26.0886C17.7321 26.0886 17.4821 25.9151 17.3509 25.6582L17.3006 25.5376L15.207 20.4982C15.1844 20.4434 15.1704 20.3814 15.1704 20.3211C15.1704 20.0888 15.3421 19.9007 15.5538 19.9007C15.6397 19.9007 15.7193 19.9319 15.7832 19.984L18.2538 21.9136C18.4343 22.043 18.6499 22.1189 18.8818 22.1189C19.0202 22.1189 19.1521 22.0907 19.2751 22.0416L30.8935 16.3695C28.8109 13.6773 25.3811 11.9177 21.4998 11.9177C15.1484 11.9177 10 16.624 10 22.4299C10 25.5971 11.549 28.4483 13.9735 30.3755C14.168 30.5278 14.2953 30.7781 14.2953 31.0605C14.2953 31.1539 14.2771 31.2391 14.2548 31.3282C14.0612 32.1205 13.7512 33.3894 13.7368 33.4488C13.7126 33.5482 13.6749 33.6522 13.6749 33.7561C13.6749 33.9884 13.8465 34.1765 14.0585 34.1765C14.1416 34.1765 14.2096 34.1426 14.2798 34.0983L16.7974 32.5039C16.9868 32.3842 17.1873 32.3097 17.4082 32.3097C17.5257 32.3097 17.6393 32.3297 17.7461 32.3655C18.9205 32.7361 20.1877 32.942 21.4999 32.942C27.8509 32.942 33 28.2355 33 22.4299C33 20.6713 32.5249 19.0152 31.6899 17.5584L18.4488 25.9445L18.3645 25.9978Z" fill="white"/>
</g>
</g>
<defs>
<clipPath id="clip0_646_4163">
<rect y="0.788208" width="43" height="43.5059" rx="10" fill="white"/>
</clipPath>
</defs>
</svg>
